<?xml version="1.0" standalone="no"?>
<!DOCTYPE svg PUBLIC "-//W3C//DTD SVG 20010904//EN"
 "http://www.w3.org/TR/2001/REC-SVG-20010904/DTD/svg10.dtd">
<svg version="1.0" xmlns="http://www.w3.org/2000/svg"
 width="260.000000pt" height="260.000000pt" viewBox="0 0 260.000000 260.000000"
 preserveAspectRatio="xMidYMid meet">
<metadata>
Created by potrace 1.11, written by Peter Selinger 2001-2013
</metadata>
<g transform="translate(0.000000,260.000000) scale(0.100000,-0.100000)"
fill="#000000" stroke="none">
<path d="M1294 2442 c0 -86 -6 -186 -13 -222 -22 -114 -81 -271 -120 -320
-193 -243 -455 -484 -582 -536 -106 -44 -215 -70 -312 -76 -30 -2 -42 -8 -52
-28 -16 -33 -208 -610 -204 -613 2 -2 434 -146 959 -322 525 -175 960 -320
967 -323 8 -2 136 244 339 649 l326 654 -504 500 c-278 275 -572 566 -654 647
l-149 147 -1 -157z m427 -696 c99 -18 194 -64 264 -128 56 -51 115 -127 115
-147 0 -6 -16 -11 -37 -11 -30 0 -42 7 -71 40 -87 103 -223 160 -378 160 -138
0 -255 -49 -342 -144 -89 -97 -121 -188 -125 -356 -2 -114 -2 -116 33 -184 59
-117 171 -209 292 -242 67 -18 218 -18 284 0 78 21 152 65 216 129 52 51 63
57 99 57 l40 0 -18 -32 c-29 -53 -154 -173 -208 -201 -84 -42 -161 -60 -261
-60 -172 0 -305 52 -415 162 -111 111 -163 239 -162 401 0 204 82 368 233 469
133 88 275 116 441 87z"/>
</g>
</svg>
